<svg xmlns="http://www.w3.org/2000/svg" xmlns:xlink="http://www.w3.org/1999/xlink" width="500" zoomAndPan="magnify" viewBox="0 0 375 374.999991" height="500" preserveAspectRatio="xMidYMid meet" version="1.0"><defs><clipPath id="407c0874e9"><path d="M 142.5 38 L 232 38 L 232 336 L 142.5 336 Z M 142.5 38 " clip-rule="nonzero"/></clipPath></defs><g clip-path="url(#407c0874e9)"><path fill="#ffdb72" d="M 229.941406 69.554688 C 225.832031 60.804688 216.070312 54.96875 206.070312 55.625 C 205 55.683594 203.929688 55.921875 202.738281 55.921875 C 203.929688 54.375 204.40625 52.707031 204.582031 50.863281 C 204.820312 47.828125 203.988281 45.207031 201.726562 43.125 C 199.941406 41.519531 197.796875 40.445312 195.535156 39.730469 C 192.261719 38.660156 188.867188 38.242188 185.417969 38.421875 C 182.382812 38.601562 179.40625 39.078125 176.605469 40.386719 C 170.417969 43.304688 168.09375 49.910156 172.023438 55.507812 C 171.726562 55.445312 171.546875 55.445312 171.367188 55.445312 C 167.5 54.492188 163.691406 54.613281 159.882812 55.683594 C 152.679688 57.769531 147.441406 62.113281 144.40625 69.019531 C 143.035156 72.171875 142.855469 75.507812 142.679688 78.898438 C 142.5 83.660156 143.394531 88.125 145.058594 92.46875 C 147.855469 99.730469 153.09375 104.910156 160.179688 108.066406 C 163.632812 109.613281 167.144531 110.980469 170.59375 112.46875 C 172.144531 113.125 173.691406 113.957031 174.703125 115.445312 C 175.355469 116.339844 175.417969 117.53125 174.882812 118.183594 C 173.632812 119.730469 170.355469 120.089844 169.226562 118.601562 C 168.988281 118.304688 168.75 117.945312 168.273438 118.066406 C 167.738281 118.242188 167.855469 118.71875 167.855469 119.136719 C 167.738281 123.601562 172.261719 127.292969 176.785156 126.398438 C 178.453125 126.101562 179.882812 125.507812 181.132812 124.257812 C 181.132812 125.742188 181.132812 127.054688 181.132812 128.363281 C 181.132812 129.671875 181.011719 129.851562 179.582031 129.851562 C 178.394531 129.851562 177.203125 129.851562 176.011719 129.910156 C 175.355469 129.910156 175 130.148438 175 130.921875 C 175 132.53125 174.820312 134.136719 174.820312 135.742188 C 174.761719 137.945312 174.761719 137.945312 176.964844 138.007812 C 177.679688 138.007812 177.976562 138.242188 177.917969 139.019531 C 177.855469 140.148438 177.917969 141.28125 177.917969 142.351562 C 177.917969 143.125 178.15625 143.542969 178.988281 143.480469 C 179.464844 143.421875 179.820312 143.542969 179.820312 144.136719 C 179.882812 145.386719 180 146.636719 180 147.886719 C 179.941406 151.21875 180 154.613281 179.882812 157.945312 C 179.644531 165.148438 179.882812 172.410156 179.644531 179.613281 C 179.523438 183.660156 179.644531 187.769531 179.644531 191.816406 C 179.523438 202.707031 179.703125 213.601562 179.464844 224.492188 C 179.34375 231.21875 179.40625 237.886719 179.40625 244.613281 C 179.40625 245.386719 179.40625 245.863281 178.332031 245.625 C 177.382812 245.386719 176.488281 246.101562 176.488281 247.054688 C 176.429688 248.78125 176.429688 250.566406 176.546875 252.292969 C 176.605469 253.125 177.023438 253.78125 178.035156 253.660156 C 178.867188 253.601562 179.046875 254.019531 178.988281 254.730469 C 178.988281 256.28125 178.867188 257.828125 178.867188 259.316406 C 178.691406 269.671875 178.929688 279.96875 178.632812 290.328125 C 178.511719 295.328125 178.570312 300.386719 178.570312 305.445312 C 178.570312 306.28125 178.332031 306.695312 177.441406 306.578125 C 176.84375 306.519531 176.191406 306.519531 176.070312 307.230469 C 175.714844 309.316406 175.59375 311.398438 176.011719 313.480469 C 176.132812 314.078125 176.488281 314.492188 177.203125 314.433594 C 177.976562 314.375 178.09375 314.792969 178.09375 315.445312 C 178.15625 318.78125 178.214844 322.054688 178.273438 325.386719 C 178.332031 327.113281 178.332031 328.839844 178.332031 330.507812 C 178.332031 331.519531 178.632812 332.351562 179.285156 333.066406 C 180.058594 333.957031 181.011719 334.613281 182.082031 335.089844 C 186.011719 336.757812 189.941406 334.195312 189.941406 329.910156 C 189.941406 325.148438 189.941406 320.386719 189.941406 315.683594 C 189.941406 314.96875 190.058594 314.554688 190.953125 314.671875 C 192.5 314.910156 193.09375 314.316406 193.09375 312.769531 C 193.09375 311.28125 193.09375 309.792969 193.09375 308.242188 C 193.09375 306.636719 193.09375 306.636719 191.488281 306.695312 C 190.59375 306.757812 190.296875 306.457031 190.355469 305.566406 C 190.476562 303.660156 190.296875 301.816406 190.476562 299.910156 C 190.535156 299.078125 190.832031 298.957031 191.546875 299.019531 C 192.738281 299.136719 193.988281 299.195312 195.179688 299.195312 C 196.488281 299.195312 196.84375 298.71875 196.785156 297.410156 C 196.785156 294.851562 196.785156 292.230469 196.785156 289.671875 C 196.785156 289.078125 196.964844 288.78125 197.617188 288.78125 C 200.058594 288.78125 202.441406 288.78125 204.882812 288.78125 C 205.535156 288.78125 205.714844 289.078125 205.773438 289.671875 C 205.773438 290.445312 205.832031 291.28125 205.953125 292.054688 C 206.191406 294.257812 207.261719 295.328125 209.40625 295.742188 C 210.179688 295.921875 210.953125 295.863281 211.726562 295.863281 C 212.558594 295.921875 212.855469 295.507812 212.796875 294.730469 C 212.5 290.921875 212.679688 287.054688 212.617188 283.183594 C 212.617188 281.875 212.441406 281.695312 211.070312 281.695312 C 207.023438 281.757812 202.976562 281.816406 198.929688 281.875 C 196.605469 281.875 196.964844 282.171875 196.84375 279.792969 C 196.785156 278.71875 197.082031 278.363281 198.15625 278.421875 C 202.5 278.542969 206.90625 278.601562 211.25 278.660156 C 212.617188 278.660156 212.617188 278.660156 212.558594 277.351562 C 212.441406 275.328125 212.261719 273.304688 212.382812 271.28125 C 212.5 269.554688 212.558594 267.769531 212.558594 266.042969 C 212.558594 265.269531 212.382812 264.851562 211.488281 264.96875 C 210.59375 265.089844 209.703125 265.089844 208.75 265.148438 C 207.203125 265.269531 206.070312 266.339844 205.894531 267.886719 C 205.773438 268.78125 205.714844 269.613281 205.832031 270.507812 C 206.011719 271.339844 205.714844 271.695312 204.761719 271.695312 C 202.558594 271.636719 200.355469 271.636719 198.15625 271.695312 C 197.203125 271.695312 196.84375 271.398438 196.90625 270.445312 C 196.964844 267.945312 196.90625 265.386719 196.964844 262.886719 C 196.964844 261.933594 196.605469 261.636719 195.714844 261.636719 C 194.34375 261.578125 192.917969 261.457031 191.546875 261.457031 C 190.773438 261.457031 190.59375 261.160156 190.59375 260.445312 C 190.65625 258.542969 190.65625 256.578125 190.65625 254.671875 C 190.65625 254.136719 190.832031 253.898438 191.367188 253.71875 C 192.441406 253.421875 193.09375 252.648438 193.15625 251.519531 C 193.214844 250.03125 192.976562 248.542969 192.855469 247.054688 C 192.796875 246.28125 192.203125 245.742188 191.546875 245.804688 C 190.476562 245.863281 190.59375 245.269531 190.65625 244.671875 C 190.832031 239.257812 190.65625 233.839844 190.832031 228.421875 C 191.070312 221.816406 190.832031 215.148438 191.070312 208.542969 C 191.308594 202.410156 191.132812 196.28125 191.25 190.089844 C 191.429688 182.171875 191.429688 174.257812 191.488281 166.339844 C 191.546875 159.910156 191.667969 153.480469 191.785156 147.054688 C 191.785156 146.816406 191.726562 146.398438 191.84375 146.339844 C 192.738281 145.863281 192.382812 145.089844 192.382812 144.433594 C 192.382812 143.71875 192.738281 143.421875 193.332031 143.601562 C 194.105469 143.839844 194.226562 143.480469 194.285156 142.828125 C 194.34375 141.457031 194.464844 140.089844 194.464844 138.71875 C 194.464844 137.886719 194.820312 137.589844 195.59375 137.648438 C 196.132812 137.707031 196.726562 137.648438 197.261719 137.648438 C 197.738281 137.648438 198.09375 137.410156 197.976562 136.875 C 197.617188 134.613281 197.617188 132.292969 197.382812 130.03125 C 197.320312 129.375 197.023438 129.136719 196.429688 129.195312 C 195.117188 129.257812 193.867188 129.195312 192.558594 129.375 C 191.84375 129.433594 191.546875 129.195312 191.488281 128.542969 C 191.367188 127.054688 191.25 125.625 191.132812 124.078125 C 192.796875 125.445312 193.808594 125.921875 195.894531 126.398438 C 201.605469 127.648438 204.820312 124.554688 205.59375 119.195312 C 205.65625 118.71875 205.714844 118.125 205.179688 117.886719 C 204.703125 117.648438 204.464844 118.183594 204.167969 118.421875 C 202.738281 119.671875 201.011719 119.910156 199.285156 119.316406 C 197.738281 118.78125 197.203125 117.171875 198.09375 115.804688 C 198.394531 115.269531 198.808594 114.792969 199.226562 114.316406 C 201.070312 112.410156 203.394531 111.21875 205.832031 110.207031 C 209.285156 108.839844 212.796875 107.648438 216.070312 105.980469 C 222.617188 102.589844 227.203125 97.292969 229.882812 90.445312 C 230.894531 87.945312 230.894531 85.269531 231.367188 82.648438 C 232.5 78.125 231.964844 73.78125 229.941406 69.554688 Z M 196.964844 283.839844 C 196.964844 283.242188 197.203125 283.066406 197.738281 283.007812 C 202.144531 282.707031 206.546875 282.945312 210.894531 282.886719 C 211.488281 282.886719 211.726562 283.125 211.726562 283.71875 C 211.785156 287.351562 211.84375 290.980469 211.90625 294.613281 C 211.90625 295.207031 211.667969 295.445312 211.070312 295.328125 C 210.535156 295.269531 209.941406 295.207031 209.40625 295.089844 C 207.796875 294.792969 206.90625 293.601562 206.785156 291.457031 C 206.726562 290.566406 206.667969 289.730469 206.90625 288.839844 C 207.082031 288.242188 206.785156 288.066406 206.25 288.125 C 205.535156 288.183594 204.882812 288.183594 204.167969 288.242188 C 203.453125 288.242188 202.796875 288.242188 202.082031 288.242188 C 200.714844 288.242188 199.285156 288.242188 197.917969 288.242188 C 197.261719 288.242188 196.964844 288.066406 196.964844 287.351562 C 196.964844 286.160156 196.964844 285.03125 196.964844 283.839844 Z M 196.964844 276.339844 C 197.023438 275.445312 197.082031 274.554688 197.082031 273.601562 C 197.082031 272.828125 197.382812 272.53125 198.15625 272.589844 C 200.59375 272.707031 203.035156 272.46875 205.476562 272.707031 C 205.832031 272.769531 206.25 272.707031 206.605469 272.707031 C 207.144531 272.648438 207.320312 272.410156 207.082031 271.816406 C 206.546875 270.566406 206.726562 269.257812 206.964844 268.007812 C 207.203125 266.757812 207.976562 266.160156 209.34375 266.101562 C 212.382812 265.980469 211.90625 265.804688 211.785156 268.363281 C 211.605469 271.101562 211.667969 273.898438 211.726562 276.636719 C 211.726562 277.589844 211.488281 277.945312 210.535156 277.886719 C 208.570312 277.828125 206.546875 277.886719 204.582031 277.886719 C 202.5 277.886719 200.476562 277.886719 198.394531 277.886719 C 197.023438 277.886719 196.84375 277.648438 196.964844 276.339844 Z M 171.191406 51.757812 C 170.535156 46.519531 172.679688 42.945312 177.679688 40.921875 C 180.65625 39.671875 183.808594 39.433594 186.90625 39.257812 C 191.667969 39.492188 196.132812 40.269531 200.117188 43.007812 C 203.09375 45.03125 204.105469 47.886719 203.691406 51.339844 C 203.570312 52.46875 203.332031 53.601562 202.679688 54.613281 C 202.023438 55.625 201.25 56.457031 200 56.816406 C 198.867188 57.113281 197.796875 57.53125 196.84375 58.183594 C 194.226562 60.03125 189.167969 57.53125 189.046875 53.601562 C 188.867188 49.492188 193.15625 46.875 196.90625 48.839844 C 197.082031 48.957031 197.261719 49.078125 197.441406 49.136719 C 197.855469 49.316406 198.273438 50.148438 198.75 49.554688 C 199.226562 48.957031 198.511719 48.480469 198.09375 48.125 C 193.570312 43.660156 186.546875 42.171875 181.070312 44.554688 C 179.167969 45.386719 177.617188 46.636719 176.429688 48.304688 C 176.191406 48.601562 175.894531 48.957031 176.191406 49.316406 C 176.546875 49.730469 176.964844 49.433594 177.320312 49.257812 C 178.570312 48.542969 179.941406 48.183594 181.429688 48.183594 C 183.453125 48.242188 184.882812 49.195312 185.714844 50.980469 C 186.546875 52.769531 186.308594 54.492188 185 56.042969 C 183.273438 58.066406 180.179688 59.613281 177.203125 57.589844 C 176.132812 56.875 174.820312 56.398438 173.75 55.683594 C 172.203125 54.730469 171.367188 53.421875 171.191406 51.757812 Z M 182.082031 126.519531 C 182.144531 125.148438 182.082031 123.898438 182.679688 122.589844 C 183.691406 120.386719 184.167969 118.007812 183.75 115.566406 C 183.632812 114.910156 183.929688 114.730469 184.523438 114.96875 C 185.832031 115.445312 187.203125 115.566406 188.511719 115.148438 C 189.226562 114.96875 189.40625 115.269531 189.464844 115.863281 C 189.644531 117.828125 189.761719 119.851562 190.117188 121.757812 C 190.535156 123.898438 190.59375 126.101562 190.894531 128.242188 C 191.011719 129.136719 190.773438 129.492188 189.820312 129.492188 C 187.558594 129.492188 185.296875 129.613281 183.035156 129.671875 C 182.320312 129.730469 182.023438 129.433594 182.082031 128.71875 C 182.082031 128.007812 182.082031 127.292969 182.082031 126.519531 Z M 183.867188 113.542969 C 184.34375 113.421875 184.820312 113.363281 185.296875 113.242188 C 185.535156 113.183594 185.714844 113.125 185.714844 112.886719 C 185.714844 112.589844 185.417969 112.53125 185.179688 112.53125 C 184.820312 112.53125 184.464844 112.589844 184.167969 112.648438 C 183.808594 112.707031 183.394531 112.769531 183.035156 112.707031 C 182.382812 112.589844 182.082031 111.992188 182.082031 111.457031 C 182.082031 110.921875 182.679688 111.21875 183.035156 111.160156 C 183.988281 111.101562 184.941406 111.160156 185.894531 111.160156 C 186.25 111.160156 186.785156 111.28125 186.84375 110.742188 C 186.84375 110.207031 186.308594 110.269531 185.953125 110.269531 C 184.882812 110.269531 183.808594 110.269531 182.679688 110.269531 C 182.261719 110.269531 181.726562 110.386719 181.726562 109.730469 C 181.726562 109.078125 182.320312 109.257812 182.679688 109.257812 C 183.632812 109.257812 184.644531 109.316406 185.59375 109.316406 C 185.894531 109.316406 186.191406 109.316406 186.191406 108.957031 C 186.191406 108.601562 185.894531 108.542969 185.59375 108.542969 C 184.40625 108.480469 183.273438 108.363281 182.082031 108.304688 C 182.082031 108.183594 182.082031 108.066406 182.082031 107.945312 C 182.738281 107.945312 183.394531 107.945312 183.988281 107.945312 C 184.34375 107.945312 184.882812 108.007812 184.882812 107.46875 C 184.882812 107.054688 184.40625 107.054688 184.046875 107.054688 C 183.691406 107.054688 183.332031 106.992188 182.855469 106.992188 C 184.285156 104.96875 187.738281 104.671875 189.882812 106.21875 C 191.964844 107.769531 192.5 110.445312 191.070312 112.410156 C 189.464844 114.613281 186.132812 115.148438 183.867188 113.542969 Z M 186.191406 104.316406 C 183.394531 104.492188 181.605469 106.101562 180.535156 109.613281 C 177.976562 106.757812 174.703125 105.089844 171.25 103.71875 C 169.167969 102.886719 167.023438 101.992188 165 101.042969 C 160.179688 98.78125 156.25 95.328125 153.394531 90.863281 C 151.132812 87.351562 149.703125 83.480469 150.117188 79.078125 C 150.832031 71.695312 156.25 64.792969 163.808594 63.421875 C 170.953125 62.171875 177.617188 66.933594 178.929688 74.316406 C 179.464844 77.113281 179.34375 79.851562 178.511719 82.589844 C 178.035156 82.648438 177.976562 82.230469 177.738281 82.054688 C 174.34375 78.601562 168.09375 77.707031 164.761719 82.648438 C 162.558594 85.921875 163.511719 90.566406 166.90625 93.066406 C 171.070312 96.101562 176.367188 95.863281 181.011719 92.46875 C 183.632812 90.566406 185.058594 87.828125 186.488281 85.03125 C 186.605469 84.792969 186.726562 84.554688 186.84375 84.257812 C 186.84375 84.257812 186.90625 84.195312 186.964844 84.136719 C 188.394531 87.351562 190.65625 89.851562 193.394531 91.933594 C 196.90625 94.554688 200.832031 95.507812 205.058594 94.078125 C 210.59375 92.292969 212.441406 85.921875 208.09375 81.519531 C 206.132812 79.554688 203.570312 79.613281 201.011719 79.910156 C 199.285156 80.089844 197.796875 80.863281 196.546875 82.054688 C 196.132812 82.46875 195.894531 82.46875 195.65625 81.816406 C 192.617188 72.828125 198.511719 63.421875 207.917969 63.304688 C 215.296875 63.183594 222.082031 68.898438 223.214844 76.21875 C 223.632812 79.078125 223.808594 81.992188 223.273438 84.792969 C 222.617188 88.066406 221.132812 91.042969 218.988281 93.660156 C 215.296875 98.125 210.417969 100.683594 205.117188 102.707031 C 202.617188 103.660156 200.058594 104.554688 197.679688 105.804688 C 195.953125 106.757812 194.34375 107.886719 192.917969 109.375 C 191.308594 105.566406 189.40625 104.136719 186.191406 104.316406 Z M 186.90625 69.492188 C 185.59375 65.566406 183.453125 62.351562 180.238281 59.730469 C 180.65625 59.433594 181.011719 59.433594 181.367188 59.375 C 183.867188 58.78125 185.714844 57.292969 186.667969 54.910156 C 188.214844 51.21875 184.703125 46.933594 180.59375 47.410156 C 179.644531 47.53125 178.75 47.707031 177.617188 48.183594 C 182.558594 42.945312 190.535156 43.421875 195.65625 47.410156 C 191.667969 46.875 188.808594 48.78125 188.15625 52.410156 C 187.5 55.742188 189.941406 58.71875 194.167969 59.730469 C 190.773438 62.292969 188.332031 65.445312 186.90625 69.492188 Z M 179.523438 124.433594 C 175.832031 126.933594 170.296875 125.328125 168.988281 120.863281 C 168.867188 120.445312 168.808594 120.03125 168.929688 119.613281 C 171.011719 120.921875 173.035156 120.683594 175 119.316406 C 176.191406 118.480469 176.488281 117.230469 176.011719 115.863281 C 175.476562 114.433594 174.40625 113.542969 173.15625 112.769531 C 170.953125 111.457031 168.570312 110.566406 166.191406 109.613281 C 162.5 108.125 158.75 106.757812 155.476562 104.375 C 150.355469 100.683594 146.785156 95.921875 145.058594 89.792969 C 144.40625 87.46875 143.867188 85.03125 143.511719 82.648438 C 143.273438 81.042969 143.75 79.492188 143.691406 77.886719 C 143.214844 66.519531 152.382812 57.351562 162.917969 56.042969 C 170.476562 55.089844 177.023438 57.113281 182.144531 62.828125 C 184.941406 65.980469 186.726562 69.613281 186.546875 74.019531 C 186.429688 76.398438 186.546875 78.78125 186.546875 81.160156 C 186.546875 81.695312 186.546875 82.292969 186.367188 82.828125 C 184.34375 88.480469 181.132812 92.945312 174.761719 94.136719 C 170.714844 94.910156 165.296875 92.230469 164.582031 87.589844 C 164.046875 84.257812 166.726562 80.445312 170.117188 80.148438 C 173.511719 79.851562 176.308594 80.863281 178.15625 83.898438 C 178.273438 84.136719 178.394531 84.375 178.691406 84.316406 C 178.988281 84.257812 179.046875 84.019531 179.167969 83.78125 C 179.703125 82.410156 180 80.980469 180.179688 79.492188 C 180.894531 72.945312 177.976562 65.921875 171.367188 63.304688 C 166.070312 61.21875 161.070312 62.230469 156.667969 65.625 C 151.488281 69.613281 148.988281 75.089844 149.34375 81.636719 C 149.582031 86.28125 151.667969 90.269531 154.582031 93.839844 C 158.75 99.136719 164.464844 102.113281 170.59375 104.433594 C 173.570312 105.566406 176.367188 106.875 178.75 109.078125 C 179.761719 109.96875 180.714844 110.921875 181.25 112.171875 C 181.667969 113.125 182.738281 113.601562 182.855469 114.792969 C 183.214844 118.542969 182.917969 122.113281 179.523438 124.433594 Z M 189.105469 323.183594 C 189.105469 325.507812 189.105469 327.769531 189.105469 330.089844 C 189.046875 333.601562 186.011719 335.683594 182.679688 334.433594 C 181.84375 334.136719 181.132812 333.601562 180.476562 333.066406 C 179.703125 332.351562 179.285156 331.578125 179.285156 330.445312 C 179.285156 325.507812 179.167969 320.625 179.105469 315.683594 C 179.105469 315.148438 178.988281 314.554688 179.882812 314.554688 C 180.714844 314.554688 180.894531 314.910156 180.832031 315.625 C 180.832031 318.898438 180.832031 322.113281 180.832031 325.386719 C 180.832031 325.804688 180.535156 326.578125 181.191406 326.578125 C 181.785156 326.578125 181.546875 325.804688 181.546875 325.328125 C 181.546875 322.113281 181.605469 318.898438 181.546875 315.683594 C 181.546875 314.910156 181.726562 314.671875 182.558594 314.671875 C 184.34375 314.730469 186.191406 314.792969 187.976562 314.730469 C 188.75 314.730469 189.046875 314.96875 189.046875 315.742188 C 189.105469 318.242188 189.105469 320.742188 189.105469 323.183594 Z M 191.429688 307.769531 C 192.144531 307.769531 192.441406 308.007812 192.441406 308.71875 C 192.382812 309.375 192.441406 310.03125 192.441406 310.683594 C 192.441406 310.804688 192.441406 310.921875 192.441406 310.980469 C 192.5 314.492188 192.382812 314.019531 189.40625 313.898438 C 185.65625 313.78125 181.84375 313.71875 178.09375 313.71875 C 177.203125 313.71875 176.90625 313.421875 176.726562 312.589844 C 176.429688 311.042969 176.90625 309.554688 176.84375 308.007812 C 176.84375 307.410156 177.261719 307.351562 177.738281 307.351562 C 181.070312 307.410156 184.34375 307.46875 187.679688 307.589844 C 188.929688 307.707031 190.179688 307.769531 191.429688 307.769531 Z M 180.296875 253.78125 C 181.132812 253.660156 181.367188 254.078125 181.367188 254.851562 C 181.308594 258.242188 181.367188 261.636719 181.308594 265.03125 C 181.308594 266.578125 181.308594 268.183594 181.308594 269.730469 C 181.308594 269.730469 181.308594 269.730469 181.25 269.730469 C 181.25 274.554688 181.25 279.375 181.25 284.195312 C 181.25 284.492188 181.25 284.730469 181.25 285.03125 C 181.25 285.269531 181.308594 285.566406 181.605469 285.566406 C 181.964844 285.625 182.082031 285.328125 182.144531 285.03125 C 182.203125 284.671875 182.203125 284.257812 182.203125 283.898438 C 182.203125 274.316406 182.261719 264.730469 182.261719 255.207031 C 182.261719 253.71875 182.261719 253.660156 183.691406 253.78125 C 185.417969 253.957031 187.082031 254.019531 188.808594 253.957031 C 189.644531 253.957031 189.882812 254.257812 189.882812 255.03125 C 189.882812 261.101562 190 267.113281 189.820312 273.183594 C 189.582031 283.78125 189.703125 294.433594 189.703125 305.089844 C 189.703125 306.816406 189.703125 306.875 187.976562 306.816406 C 185.476562 306.757812 182.976562 306.519531 180.417969 306.636719 C 179.644531 306.636719 179.464844 306.28125 179.464844 305.625 C 179.523438 298.421875 179.40625 291.160156 179.582031 283.957031 C 179.820312 274.257812 179.703125 264.613281 179.761719 254.910156 C 179.761719 254.492188 179.523438 253.898438 180.296875 253.78125 Z M 191.25 262.410156 C 191.785156 262.46875 191.605469 263.007812 191.605469 263.363281 C 191.667969 271.160156 191.25 278.957031 191.429688 286.695312 C 191.429688 287.230469 191.011719 288.125 191.84375 288.183594 C 192.5 288.183594 192.144531 287.292969 192.203125 286.757812 C 192.5 281.21875 192.320312 275.742188 192.441406 270.207031 C 192.5 268.007812 192.558594 265.742188 192.558594 263.480469 C 192.558594 262.707031 192.855469 262.46875 193.632812 262.46875 C 196.308594 262.46875 196.25 262.46875 196.25 265.089844 C 196.25 268.898438 196.308594 272.707031 196.191406 276.519531 C 196.070312 283.480469 195.953125 290.386719 196.011719 297.351562 C 196.011719 298.183594 195.773438 298.480469 194.941406 298.421875 C 193.929688 298.363281 192.917969 298.304688 191.90625 298.304688 C 190.832031 298.304688 190.59375 297.828125 190.59375 296.816406 C 190.65625 294.613281 190.65625 292.410156 190.65625 290.207031 C 190.65625 287.769531 190.65625 285.328125 190.65625 282.886719 C 190.65625 279.316406 190.65625 275.742188 190.65625 272.171875 C 190.65625 269.195312 190.714844 266.21875 190.773438 263.304688 C 190.832031 263.007812 190.65625 262.410156 191.25 262.410156 Z M 191.070312 246.816406 C 191.785156 246.695312 192.203125 246.875 192.261719 247.707031 C 192.320312 248.601562 192.5 249.433594 192.5 250.328125 C 192.5 250.625 192.5 250.863281 192.5 251.160156 C 192.5 252.589844 192.082031 252.828125 190.65625 252.886719 C 187.679688 253.007812 184.644531 252.886719 181.667969 252.886719 C 180.535156 252.886719 179.464844 252.769531 178.332031 252.769531 C 177.796875 252.769531 177.5 252.53125 177.5 251.933594 C 177.441406 250.566406 177.382812 249.136719 177.320312 247.769531 C 177.320312 246.933594 177.679688 246.457031 178.570312 246.519531 C 181.25 246.636719 183.929688 246.816406 186.605469 246.875 C 188.09375 247.054688 189.582031 247.113281 191.070312 246.816406 Z M 190.773438 159.851562 C 190.714844 162.589844 190.714844 165.386719 190.714844 168.125 C 190.65625 176.695312 190.535156 185.207031 190.476562 193.78125 C 190.417969 200.089844 190.476562 206.339844 190.296875 212.648438 C 190.117188 219.136719 190.238281 225.625 190.058594 232.113281 C 189.941406 236.398438 189.941406 240.683594 189.882812 244.96875 C 189.882812 245.804688 189.582031 246.042969 188.808594 246.042969 C 186.308594 245.980469 183.808594 246.042969 181.25 245.863281 C 180.535156 245.804688 180.296875 245.507812 180.296875 244.851562 C 180.355469 235.742188 180.238281 226.695312 180.417969 217.589844 C 180.535156 211.160156 180.535156 204.730469 180.59375 198.304688 C 180.59375 190.804688 180.476562 183.363281 180.65625 175.863281 C 180.773438 168.71875 180.773438 161.519531 180.894531 154.375 C 180.953125 152.054688 180.953125 149.671875 181.011719 147.351562 C 181.011719 146.875 180.953125 146.339844 181.726562 146.339844 C 182.5 146.339844 182.441406 146.875 182.441406 147.351562 C 182.441406 152.46875 182.441406 157.53125 182.441406 162.648438 C 182.441406 162.648438 182.382812 162.648438 182.382812 162.648438 C 182.382812 166.816406 182.5 170.980469 182.382812 175.148438 C 182.203125 179.671875 182.5 184.195312 182.382812 188.78125 C 182.261719 194.730469 182.320312 200.625 182.144531 206.578125 C 182.023438 211.757812 182.082031 216.992188 181.964844 222.171875 C 181.84375 225.980469 181.84375 229.792969 181.785156 233.601562 C 181.785156 233.898438 181.785156 234.136719 181.785156 234.433594 C 181.785156 234.671875 181.84375 234.96875 182.144531 234.96875 C 182.441406 234.96875 182.558594 234.730469 182.617188 234.492188 C 182.679688 234.257812 182.679688 234.019531 182.679688 233.78125 C 182.679688 231.636719 182.738281 229.433594 182.738281 227.292969 C 182.738281 219.96875 182.917969 212.707031 182.976562 205.386719 C 183.035156 200.148438 183.09375 194.910156 183.15625 189.671875 C 183.15625 188.660156 183.273438 187.648438 183.273438 186.636719 C 183.273438 182.886719 183.09375 179.078125 183.15625 175.328125 C 183.332031 165.980469 183.332031 156.636719 183.332031 147.230469 C 183.332031 146.757812 183.15625 146.160156 183.929688 146.160156 C 184.761719 146.101562 184.644531 146.757812 184.644531 147.230469 C 184.644531 151.578125 184.582031 155.921875 184.703125 160.207031 C 184.820312 164.851562 184.941406 169.492188 184.820312 174.136719 C 184.644531 181.875 184.761719 189.671875 184.582031 197.410156 C 184.464844 204.257812 184.523438 211.101562 184.40625 217.945312 C 184.34375 220.921875 184.34375 223.957031 184.226562 226.933594 C 184.226562 227.230469 184.226562 227.589844 184.285156 227.886719 C 184.285156 228.125 184.40625 228.363281 184.703125 228.363281 C 185 228.363281 185.117188 228.125 185.179688 227.886719 C 185.238281 227.648438 185.238281 227.410156 185.238281 227.171875 C 185.296875 219.492188 185.355469 211.816406 185.476562 204.136719 C 185.535156 196.160156 185.59375 188.183594 185.714844 180.269531 C 185.894531 169.375 185.59375 158.480469 185.714844 147.589844 C 185.714844 146.101562 185.714844 146.101562 187.144531 146.28125 C 188.09375 146.398438 189.046875 146.398438 189.941406 146.398438 C 190.773438 146.339844 191.011719 146.695312 191.011719 147.46875 C 190.894531 151.578125 190.832031 155.683594 190.773438 159.851562 Z M 190.953125 145.386719 C 189.285156 145.386719 187.679688 145.386719 186.011719 145.386719 C 184.523438 145.386719 183.09375 145.386719 181.605469 145.386719 C 181.132812 145.386719 180.535156 145.507812 180.65625 144.730469 C 180.714844 144.136719 180.535156 143.421875 181.546875 143.421875 C 184.703125 143.542969 187.917969 143.601562 191.070312 143.660156 C 191.726562 143.660156 191.726562 144.078125 191.726562 144.613281 C 191.785156 145.148438 191.546875 145.445312 190.953125 145.386719 Z M 193.867188 138.898438 C 193.691406 139.910156 193.632812 140.980469 193.691406 142.054688 C 193.691406 142.648438 193.453125 142.828125 192.917969 142.828125 C 188.511719 142.707031 184.046875 142.648438 179.644531 142.53125 C 179.046875 142.53125 178.75 142.292969 178.75 141.695312 C 178.808594 140.804688 178.808594 139.851562 178.75 138.957031 C 178.75 138.242188 178.988281 138.007812 179.703125 138.066406 C 181.308594 138.125 182.917969 138.066406 184.523438 138.066406 C 187.320312 138.125 190.117188 137.828125 192.917969 137.828125 C 193.632812 137.769531 193.988281 138.066406 193.867188 138.898438 Z M 195.832031 130.207031 C 196.546875 130.148438 196.84375 130.386719 196.84375 131.160156 C 196.90625 132.648438 197.082031 134.136719 197.203125 135.625 C 197.320312 136.457031 197.082031 136.875 196.132812 136.875 C 192.320312 136.933594 188.453125 137.054688 184.644531 137.054688 C 182.082031 137.054688 179.464844 137.054688 176.90625 137.054688 C 176.011719 137.054688 175.714844 136.757812 175.773438 135.921875 C 175.894531 134.613281 175.773438 133.304688 175.894531 131.933594 C 176.011719 131.101562 176.25 130.804688 177.082031 130.804688 C 181.546875 130.683594 186.011719 130.566406 190.476562 130.328125 C 192.261719 130.269531 194.046875 130.328125 195.832031 130.207031 Z M 230.714844 83.183594 C 230.535156 84.671875 230.355469 86.160156 230.058594 87.648438 C 229.285156 91.816406 227.082031 95.269531 224.40625 98.480469 C 220.59375 103.183594 215.417969 105.804688 209.941406 107.886719 C 207.382812 108.839844 204.820312 109.671875 202.441406 111.042969 C 200.832031 111.933594 199.40625 113.066406 198.273438 114.492188 C 196.964844 116.101562 196.726562 117.46875 197.5 118.78125 C 198.214844 120.03125 200.117188 120.742188 201.84375 120.507812 C 202.917969 120.328125 203.929688 119.96875 204.882812 119.375 C 204.761719 123.71875 201.25 126.398438 196.785156 125.625 C 195.417969 125.386719 194.167969 125.03125 192.976562 124.257812 C 191.546875 123.304688 191.25 121.816406 190.953125 120.386719 C 190.59375 118.660156 190.535156 116.933594 190.296875 115.207031 C 190.238281 114.671875 190.417969 114.316406 190.832031 113.957031 C 191.488281 113.480469 192.023438 112.828125 192.320312 112.054688 C 192.917969 110.207031 194.40625 109.019531 195.832031 107.945312 C 198.453125 105.980469 201.546875 104.910156 204.582031 103.78125 C 209.105469 102.113281 213.394531 100.089844 217.023438 96.816406 C 219.105469 94.910156 220.832031 92.769531 222.144531 90.269531 C 225.296875 84.316406 225.179688 78.242188 222.855469 72.171875 C 220.535156 65.980469 213.75 61.933594 207.082031 62.351562 C 200.117188 62.828125 194.285156 68.78125 193.988281 75.742188 C 193.929688 78.304688 194.226562 80.683594 195.179688 83.066406 C 195.59375 84.136719 195.832031 84.195312 196.605469 83.363281 C 198.929688 80.742188 201.84375 80.445312 205.058594 80.980469 C 209.34375 81.695312 211.25 87.886719 208.15625 91.160156 C 205.535156 93.898438 202.320312 94.433594 198.929688 93.542969 C 193.632812 92.171875 190.179688 88.542969 187.917969 83.71875 C 187.441406 82.648438 187.617188 81.519531 187.558594 80.386719 C 187.5 77.945312 187.617188 75.507812 187.382812 73.066406 C 187.144531 70.683594 188.15625 68.601562 189.285156 66.636719 C 191.132812 63.480469 193.632812 61.160156 196.84375 59.316406 C 204.941406 54.613281 215.773438 56.21875 222.738281 61.875 C 227.082031 65.386719 229.882812 69.851562 230.953125 75.328125 C 231.429688 77.945312 231.070312 80.566406 230.714844 83.183594 Z M 230.714844 83.183594 " fill-opacity="1" fill-rule="nonzero"/></g><path fill="#ffdb72" d="M 173.632812 90.921875 C 173.214844 90.980469 172.441406 90.804688 172.558594 91.519531 C 172.679688 92.113281 173.394531 91.816406 173.808594 91.816406 C 173.867188 91.816406 173.867188 91.816406 173.929688 91.816406 C 179.046875 90.804688 183.570312 86.28125 184.523438 81.160156 C 184.703125 80.207031 184.820312 79.257812 184.761719 78.242188 C 184.703125 77.886719 184.644531 77.589844 184.226562 77.589844 C 183.808594 77.589844 183.867188 78.007812 183.867188 78.304688 C 183.867188 78.601562 183.867188 78.839844 183.867188 79.136719 C 183.867188 79.851562 183.75 80.566406 183.632812 81.339844 C 182.617188 85.980469 178.035156 90.445312 173.632812 90.921875 Z M 173.632812 90.921875 " fill-opacity="1" fill-rule="nonzero"/><path fill="#ffdb72" d="M 181.488281 118.066406 C 181.191406 118.007812 181.132812 118.304688 181.070312 118.542969 C 180.832031 119.433594 180.59375 120.386719 180 121.101562 C 178.988281 122.351562 177.679688 123.183594 176.132812 123.601562 C 175.832031 123.660156 175.296875 123.71875 175.417969 124.136719 C 175.535156 124.613281 176.011719 124.492188 176.367188 124.375 C 177.5 124.078125 178.570312 123.542969 179.523438 122.769531 C 180.832031 121.695312 181.726562 120.328125 181.90625 118.601562 C 181.84375 118.421875 181.84375 118.125 181.488281 118.066406 Z M 181.488281 118.066406 " fill-opacity="1" fill-rule="nonzero"/><path fill="#ffdb72" d="M 169.226562 90.445312 C 167.679688 89.492188 167.023438 88.183594 167.203125 86.398438 C 167.203125 86.042969 167.261719 85.683594 167.320312 85.386719 C 167.382812 85.148438 167.382812 84.851562 167.082031 84.792969 C 166.667969 84.671875 166.605469 85.03125 166.546875 85.269531 C 166.429688 85.804688 166.367188 86.339844 166.308594 86.816406 C 166.429688 88.78125 167.144531 90.328125 168.808594 91.21875 C 169.105469 91.398438 169.523438 91.757812 169.820312 91.28125 C 169.941406 90.804688 169.464844 90.625 169.226562 90.445312 Z M 169.226562 90.445312 " fill-opacity="1" fill-rule="nonzero"/><path fill="#ffdb72" d="M 190.355469 78.71875 C 190.355469 78.183594 190.65625 77.230469 189.882812 77.230469 C 189.105469 77.230469 189.582031 78.183594 189.40625 78.660156 C 189.40625 79.792969 189.582031 80.863281 189.882812 81.816406 C 191.132812 86.398438 193.632812 89.910156 198.570312 91.101562 C 198.929688 91.160156 199.40625 91.457031 199.582031 90.980469 C 199.761719 90.386719 199.167969 90.386719 198.808594 90.269531 C 197.5 89.851562 196.132812 89.433594 195.058594 88.542969 C 191.964844 85.980469 190.535156 82.648438 190.355469 78.71875 Z M 190.355469 78.71875 " fill-opacity="1" fill-rule="nonzero"/><path fill="#ffdb72" d="M 194.046875 122.113281 C 193.273438 121.042969 193.09375 119.730469 192.976562 118.421875 C 192.917969 118.125 193.09375 117.707031 192.679688 117.648438 C 192.203125 117.648438 192.203125 118.066406 192.203125 118.421875 C 192.144531 119.613281 192.441406 120.804688 192.976562 121.875 C 193.929688 123.78125 195.476562 124.851562 197.558594 124.96875 C 197.976562 124.910156 198.453125 125.03125 198.511719 124.613281 C 198.570312 124.078125 198.035156 124.078125 197.679688 124.078125 C 196.070312 124.078125 194.941406 123.304688 194.046875 122.113281 Z M 194.046875 122.113281 " fill-opacity="1" fill-rule="nonzero"/><path fill="#ffdb72" d="M 203.808594 91.519531 C 205.773438 90.921875 207.203125 88.957031 207.203125 86.816406 C 207.023438 86.519531 207.558594 85.742188 206.785156 85.742188 C 206.132812 85.742188 206.429688 86.457031 206.429688 86.875 C 206.191406 88.71875 205.296875 90.089844 203.511719 90.742188 C 203.214844 90.863281 202.738281 90.921875 202.917969 91.398438 C 203.09375 91.816406 203.511719 91.636719 203.808594 91.519531 Z M 203.808594 91.519531 " fill-opacity="1" fill-rule="nonzero"/><path fill="#ffdb72" d="M 182.023438 237.171875 C 181.667969 237.171875 181.546875 237.46875 181.546875 237.707031 C 181.546875 238.421875 181.546875 239.078125 181.546875 239.96875 C 181.546875 240.328125 181.546875 240.921875 181.429688 241.457031 C 181.367188 241.757812 181.367188 242.054688 181.726562 242.113281 C 182.082031 242.230469 182.382812 241.992188 182.382812 241.636719 C 182.441406 240.328125 182.441406 238.957031 182.441406 237.648438 C 182.382812 237.410156 182.261719 237.171875 182.023438 237.171875 Z M 182.023438 237.171875 " fill-opacity="1" fill-rule="nonzero"/><path fill="#ffdb72" d="M 181.667969 303.183594 C 181.964844 303.183594 182.023438 302.886719 182.023438 302.648438 C 182.082031 300.269531 181.964844 297.828125 182.144531 295.445312 C 182.144531 295.148438 182.144531 294.671875 181.667969 294.671875 C 181.191406 294.671875 181.25 295.148438 181.25 295.445312 C 181.191406 297.410156 181.308594 299.375 181.132812 301.28125 C 181.132812 301.757812 181.132812 302.171875 181.132812 302.648438 C 181.191406 302.886719 181.308594 303.183594 181.667969 303.183594 Z M 181.667969 303.183594 " fill-opacity="1" fill-rule="nonzero"/><path fill="#ffdb72" d="M 181.605469 292.230469 C 181.84375 292.230469 181.964844 292.054688 182.023438 291.816406 C 182.082031 290.445312 182.203125 289.019531 182.261719 287.648438 C 182.261719 287.351562 182.144531 287.054688 181.785156 287.054688 C 181.429688 287.054688 181.308594 287.351562 181.308594 287.648438 C 181.308594 288.363281 181.308594 289.019531 181.308594 289.730469 C 181.308594 289.730469 181.25 289.730469 181.25 289.730469 C 181.25 290.386719 181.25 291.042969 181.25 291.695312 C 181.25 291.933594 181.308594 292.230469 181.605469 292.230469 Z M 181.605469 292.230469 " fill-opacity="1" fill-rule="nonzero"/><path fill="#ffdb72" d="M 180 57.292969 C 182.144531 57.292969 184.40625 55.03125 184.464844 52.886719 C 184.464844 52.113281 184.226562 51.339844 183.808594 50.863281 C 183.570312 50.625 183.332031 50.328125 183.035156 50.566406 C 182.617188 50.804688 182.976562 51.101562 183.09375 51.339844 C 183.929688 52.886719 183.511719 54.613281 182.023438 55.625 C 181.429688 56.042969 180.773438 56.339844 180 56.339844 C 179.644531 56.339844 179.226562 56.398438 179.285156 56.875 C 179.34375 57.292969 179.703125 57.292969 180 57.292969 Z M 180 57.292969 " fill-opacity="1" fill-rule="nonzero"/><path fill="#ffdb72" d="M 194.167969 56.578125 C 191.605469 55.625 190.714844 53.542969 191.84375 51.160156 C 191.964844 50.921875 192.023438 50.683594 191.785156 50.507812 C 191.546875 50.328125 191.308594 50.445312 191.132812 50.625 C 190.535156 51.21875 190.296875 51.992188 190.355469 52.769531 C 190.355469 54.730469 191.726562 56.578125 193.808594 57.351562 C 194.285156 57.53125 195 58.066406 195.238281 57.351562 C 195.476562 56.636719 194.582031 56.757812 194.167969 56.578125 Z M 194.167969 56.578125 " fill-opacity="1" fill-rule="nonzero"/></svg>